# xmcd CD database file
#
# Track frame offsets:
#	150
#	14027
#	22637
#	34252
#	45830
#	58827
#	69720
#	82390
#	94590
#	104525
#	118130
#	131685
#	145037
#	157797
#	168315
#
# Disc length: 2488 seconds
#
# Revision: 0
# Processed by: cddbd v1.5.2PL0 Copyright (c) Steve Scherf et al.
# Submitted via: CDex 1.51
#
DISCID=c609b60f
DTITLE=Various Artist - Esto es Blues Vol 2
DYEAR=1900
DGENRE=Blues
TTITLE0=Louis Amstrong - St. Louis Blues
TTITLE1=Billy Holiday - Please Don't Talk Me When I'm Gone
TTITLE2=Ike and Tina Turner - Poor Fool
TTITLE3=Etta James - I'd Rather Go Blind
TTITLE4=Brownie Mc Ghee - The Blue Have A Baby
TTITLE5=Jimmy Reed - Take Out Some Insurance
TTITLE6=Carl Perkins - Honey Don't
TTITLE7=Elmore James - The Sky Is Crying
TTITLE8=Irma Thomas - Wish Someone Would Care
TTITLE9=Charlie Parker - Parker's Mood
TTITLE10=Koko Taylor - Wand Dang Doodle
TTITLE11=Muddy Waters - Got My Mojo Working
TTITLE12=Etta James - Spoonful
TTITLE13=Dale Hawkins - Suzy Q
TTITLE14=Muddy Waters - I'm Ready
EXTD=
EXTT0=
EXTT1=
EXTT2=
EXTT3=
EXTT4=
EXTT5=
EXTT6=
EXTT7=
EXTT8=
EXTT9=
EXTT10=
EXTT11=
EXTT12=
EXTT13=
EXTT14=
PLAYORDER=
